<svg xmlns="http://www.w3.org/2000/svg" viewBox="0 0 1200 900"><defs><linearGradient id="a" x1="0" y1="0" x2="0" y2="1"><stop offset="0" stop-color="#f3c7c0"/><stop offset=".6" stop-color="#c9a3c9"/><stop offset="1" stop-color="#7d6aa6"/></linearGradient></defs><rect width="1200" height="900" fill="url(#a)"/><circle cx="820" cy="300" r="150" fill="#fff5e6" opacity=".9"/><circle cx="820" cy="300" r="220" fill="#fff5e6" opacity=".18"/><path d="M0 620 C 200 540 360 600 560 560 C 760 520 920 600 1200 560 L1200 900 L0 900Z" fill="#8a6fa8"/><path d="M0 720 C 240 660 460 720 700 690 C 900 665 1040 700 1200 690 L1200 900 L0 900Z" fill="#5e4c86"/><path d="M0 800 C 300 770 620 810 900 790 C 1040 780 1120 790 1200 786 L1200 900 L0 900Z" fill="#3e3266"/></svg>
